<?xml version="1.0" encoding="UTF-8" standalone="no"?>
<!-- Created with Inkscape (http://www.inkscape.org/) -->

<svg
   xmlns:dc="http://purl.org/dc/elements/1.1/"
   xmlns:cc="http://creativecommons.org/ns#"
   xmlns:rdf="http://www.w3.org/1999/02/22-rdf-syntax-ns#"
   xmlns:svg="http://www.w3.org/2000/svg"
   xmlns="http://www.w3.org/2000/svg"
   xmlns:sodipodi="http://sodipodi.sourceforge.net/DTD/sodipodi-0.dtd"
   xmlns:inkscape="http://www.inkscape.org/namespaces/inkscape"
   id="svg4190"
   version="1.1"
   inkscape:version="0.91 r13725"
   width="427.93423"
   height="94.825111"
   viewBox="0 0 427.93422 94.825111"
   sodipodi:docname="temoto_logo.svg"
   inkscape:export-filename="/home/robert/catkin_ws/src/temoto2/temoto_action_assistant/resources/temoto_logo_sym.png"
   inkscape:export-xdpi="300"
   inkscape:export-ydpi="300">
  <metadata
     id="metadata4196">
    <rdf:RDF>
      <cc:Work
         rdf:about="">
        <dc:format>image/svg+xml</dc:format>
        <dc:type
           rdf:resource="http://purl.org/dc/dcmitype/StillImage" />
        <dc:title></dc:title>
      </cc:Work>
    </rdf:RDF>
  </metadata>
  <defs
     id="defs4194">
    <inkscape:path-effect
       is_visible="true"
       id="path-effect4516"
       effect="spiro" />
    <inkscape:path-effect
       is_visible="true"
       id="path-effect4530"
       effect="spiro" />
    <clipPath
       id="clipPath4643"
       clipPathUnits="userSpaceOnUse">
      <path
         inkscape:connector-curvature="0"
         id="path4645"
         d="m 129.29163,198.17709 15.96935,-24.52198 13.76439,16.57071 c 0,0 0.60135,21.78247 0.4009,22.45064 -0.20045,0.66818 -7.61718,10.02261 -9.15398,10.95805 -1.5368,0.93545 -5.07812,1.00226 -5.07812,1.00226 l -1.33635,0.20046 z"
         style="fill:none;stroke:#000000;stroke-width:0.26458332px;stroke-linecap:butt;stroke-linejoin:miter;stroke-opacity:1" />
    </clipPath>
    <filter
       inkscape:collect="always"
       style="color-interpolation-filters:sRGB"
       id="filter4546"
       x="-0.0036087309"
       width="1.0072175"
       y="-0.017784856"
       height="1.0355697">
      <feGaussianBlur
         inkscape:collect="always"
         stdDeviation="0.51085654"
         id="feGaussianBlur4548" />
    </filter>
    <filter
       inkscape:collect="always"
       style="color-interpolation-filters:sRGB"
       id="filter4626"
       x="-0.020400003"
       width="1.0408"
       y="-0.020399999"
       height="1.0408">
      <feGaussianBlur
         inkscape:collect="always"
         stdDeviation="0.43067124"
         id="feGaussianBlur4628" />
    </filter>
    <filter
       inkscape:collect="always"
       style="color-interpolation-filters:sRGB"
       id="filter6290"
       x="-0.71373087"
       width="2.4274619"
       y="-37.372272"
       height="75.744545">
      <feGaussianBlur
         inkscape:collect="always"
         stdDeviation="0.48210231"
         id="feGaussianBlur6292" />
    </filter>
    <filter
       inkscape:collect="always"
       style="color-interpolation-filters:sRGB"
       id="filter4971"
       x="-0.085962243"
       width="1.1719245"
       y="-0.1496557"
       height="1.2993114">
      <feGaussianBlur
         inkscape:collect="always"
         stdDeviation="0.25472167"
         id="feGaussianBlur4973" />
    </filter>
    <filter
       inkscape:collect="always"
       style="color-interpolation-filters:sRGB"
       id="filter6845"
       x="-0.021993064"
       width="1.0439861"
       y="-0.012086601"
       height="1.0241732">
      <feGaussianBlur
         inkscape:collect="always"
         stdDeviation="0.46012281"
         id="feGaussianBlur6847" />
    </filter>
    <filter
       inkscape:collect="always"
       style="color-interpolation-filters:sRGB"
       id="filter7237"
       x="-0.028380852"
       width="1.0567617"
       y="-0.059353135"
       height="1.1187063">
      <feGaussianBlur
         inkscape:collect="always"
         stdDeviation="0.45134527"
         id="feGaussianBlur7239" />
    </filter>
  </defs>
  <sodipodi:namedview
     pagecolor="#ffffff"
     bordercolor="#666666"
     borderopacity="1"
     objecttolerance="10"
     gridtolerance="10"
     guidetolerance="10"
     inkscape:pageopacity="0"
     inkscape:pageshadow="2"
     inkscape:window-width="1916"
     inkscape:window-height="1041"
     id="namedview4192"
     showgrid="false"
     fit-margin-top="0"
     fit-margin-left="0"
     fit-margin-right="0"
     fit-margin-bottom="0"
     inkscape:zoom="1.522807"
     inkscape:cx="83.227568"
     inkscape:cy="31.29822"
     inkscape:window-x="1920"
     inkscape:window-y="18"
     inkscape:window-maximized="0"
     inkscape:current-layer="svg4190" />
  <text
     xml:space="preserve"
     style="font-style:normal;font-weight:normal;font-size:45.05762863px;line-height:125%;font-family:sans-serif;letter-spacing:0px;word-spacing:0px;fill:#000000;fill-opacity:1;stroke:none;stroke-width:1px;stroke-linecap:butt;stroke-linejoin:miter;stroke-opacity:1;filter:url(#filter4546)"
     x="85.339027"
     y="92.686646"
     id="text4200"
     sodipodi:linespacing="125%"><tspan
       sodipodi:role="line"
       id="tspan4202"
       x="85.339027"
       y="92.686646"
       style="font-style:normal;font-variant:normal;font-weight:normal;font-stretch:normal;font-size:101.37967682px;font-family:'Bitstream Charter';-inkscape-font-specification:'Bitstream Charter'"><tspan
   style="font-weight:bold"
   id="tspan4204">Te</tspan>Moto</tspan></text>
  <g
     id="g4627"
     clip-path="url(#clipPath4643)"
     transform="matrix(1.1253613,-0.06707188,0.06707188,1.1253614,-106.65714,-153.01482)"
     style="stroke:#929292;stroke-width:1.35449398;stroke-miterlimit:4;stroke-dasharray:none;stroke-opacity:1;filter:url(#filter4626)">
    <path
       id="path4553"
       d="m 135.23105,198.39004 a 4.8731617,4.8731617 0 0 1 -4.87316,4.87315 4.8731617,4.8731617 0 0 1 -4.87316,-4.87315 4.8731617,4.8731617 0 0 1 4.87316,-4.87316 4.8731617,4.8731617 0 0 1 4.87316,4.87316 z"
       style="fill:none;fill-opacity:1;stroke:#929292;stroke-width:1.35449398;stroke-linecap:square;stroke-linejoin:round;stroke-miterlimit:4;stroke-dasharray:none;stroke-dashoffset:0;stroke-opacity:1;paint-order:stroke markers fill"
       inkscape:connector-curvature="0" />
    <path
       id="path4553-9"
       d="m 142.23314,198.39004 a 11.875246,11.875246 0 0 1 -11.87525,11.87525 11.875246,11.875246 0 0 1 -11.87524,-11.87525 11.875246,11.875246 0 0 1 11.87524,-11.87525 11.875246,11.875246 0 0 1 11.87525,11.87525 z"
       style="fill:none;fill-opacity:1;stroke:#929292;stroke-width:1.35449398;stroke-linecap:square;stroke-linejoin:round;stroke-miterlimit:4;stroke-dasharray:none;stroke-dashoffset:0;stroke-opacity:1;paint-order:stroke markers fill"
       inkscape:connector-curvature="0" />
    <path
       id="path4553-9-8"
       d="m 149.03389,198.39004 a 18.675998,18.675998 0 0 1 -18.676,18.67599 18.675998,18.675998 0 0 1 -18.676,-18.67599 18.675998,18.675998 0 0 1 18.676,-18.676 18.675998,18.675998 0 0 1 18.676,18.676 z"
       style="fill:none;fill-opacity:1;stroke:#929292;stroke-width:1.35449398;stroke-linecap:square;stroke-linejoin:round;stroke-miterlimit:4;stroke-dasharray:none;stroke-dashoffset:0;stroke-opacity:1;paint-order:stroke markers fill"
       inkscape:connector-curvature="0" />
    <path
       id="path4553-9-8-9"
       d="m 155.69149,198.39004 a 25.333602,25.333602 0 0 1 -25.3336,25.3336 25.333602,25.333602 0 0 1 -25.3336,-25.3336 25.333602,25.333602 0 0 1 25.3336,-25.33361 25.333602,25.333602 0 0 1 25.3336,25.33361 z"
       style="fill:none;fill-opacity:1;stroke:#929292;stroke-width:1.35449398;stroke-linecap:square;stroke-linejoin:round;stroke-miterlimit:4;stroke-dasharray:none;stroke-dashoffset:0;stroke-opacity:1;paint-order:stroke markers fill"
       inkscape:connector-curvature="0" />
    <path
       inkscape:connector-curvature="0"
       style="fill:#000000;fill-opacity:1;stroke:#929292;stroke-width:1.35449398;stroke-linecap:square;stroke-linejoin:round;stroke-miterlimit:4;stroke-dasharray:none;stroke-dashoffset:0;stroke-opacity:1;paint-order:stroke markers fill"
       d="m 131.16066,198.4422 a 0.22813084,0.22813084 0 0 1 -0.22813,0.22813 0.22813084,0.22813084 0 0 1 -0.22813,-0.22813 0.22813084,0.22813084 0 0 1 0.22813,-0.22813 0.22813084,0.22813084 0 0 1 0.22813,0.22813 z"
       id="path4749" />
  </g>
  <flowRoot
     xml:space="preserve"
     id="flowRoot6298"
     style="font-style:normal;font-weight:normal;font-size:20.07763672px;line-height:125%;font-family:sans-serif;letter-spacing:0px;word-spacing:0px;fill:#000000;fill-opacity:1;stroke:none;stroke-width:1px;stroke-linecap:butt;stroke-linejoin:miter;stroke-opacity:1;filter:url(#filter7237)"
     transform="matrix(0.69482271,0,0,0.69482271,321.22832,-69.9159)"><flowRegion
       id="flowRegion6300"><rect
         id="rect6302"
         width="104.88303"
         height="24.938854"
         x="97.175095"
         y="132.70218" /></flowRegion><flowPara
       id="flowPara6304">手元</flowPara></flowRoot>  <g
     id="g4327"
     style="filter:url(#filter4971)">
    <path
       inkscape:connector-curvature="0"
       id="path4532"
       d="M 39.738383,63.993749 38.11726,63.962789"
       style="fill:none;stroke:#000000;stroke-width:2.31483579;stroke-linecap:butt;stroke-linejoin:miter;stroke-miterlimit:4;stroke-dasharray:none;stroke-opacity:1;filter:url(#filter6290)" />
    <path
       sodipodi:nodetypes="cc"
       inkscape:connector-curvature="0"
       id="path4532-3"
       d="m 32.729709,65.872588 -0.10296,-4.084923"
       style="fill:none;stroke:#000000;stroke-width:2.32388783;stroke-linecap:butt;stroke-linejoin:miter;stroke-miterlimit:4;stroke-dasharray:none;stroke-opacity:1;opacity:0" />
  </g>
  <g
     id="g5413"
     style="filter:url(#filter6845)">
    <path
       sodipodi:nodetypes="cccsccssccscccsccccccccccccc"
       inkscape:original-d="m 1.1570455,1.5841036 c 9.1520465,2.034172 18.3038855,4.06867 27.4554825,6.103447 9.151597,2.034796 2.245043,1.778427 3.367219,2.6680974 0.561088,0.444835 3.124647,3.049626 4.584733,6.458769 2.278583,5.320265 1.727382,9.680616 3.067994,12.470382 2.681226,5.579526 -0.752142,1.914558 -1.324396,3.968025 -0.57226,2.053458 1.858697,4.747304 2.787699,7.121408 0.464497,1.187051 1.454643,2.547705 2.576139,3.951809 1.121503,1.404103 2.374371,2.851661 3.36433,4.212531 1.979934,2.721758 -0.624223,3.129683 -0.936681,4.694969 -0.312456,1.565305 -2.362734,0.765397 -3.544452,1.148549 -1.181713,0.383137 -0.351159,2.250695 -0.527074,3.376504 -0.175939,1.125802 0.705738,2.889329 1.058252,4.334469 0.352534,1.445119 -2.376818,1.469983 -3.551071,2.089342 0.3856,0.275345 1.855337,0.324579 2.298855,0.614588 0.443538,0.289995 0.122048,0.646632 0.565474,0.936791 0.886824,0.580309 -0.42376,0.963433 -0.635981,1.445611 -0.212223,0.482155 -1.320883,1.535705 -1.981671,2.304007 -0.660785,0.768303 0.362043,1.021843 0.542729,1.533218 0.180677,0.511379 0.953596,1.819172 1.430034,2.7292 0.476447,0.910039 -0.759443,2.596369 -1.139509,3.895007 -0.38008,1.298623 -3.606176,1.415781 -5.409605,2.124127 -1.80344,0.708343 -4.181335,-0.485999 -6.27235,-0.728553 -2.091011,-0.242538 -3.181518,-0.03433 -4.772639,-0.05107 -1.591104,-0.01671 -0.692415,0.155906 -1.038957,0.234349 -0.346572,0.07841 -0.427315,0.445162 -0.641314,0.668198 -0.213983,0.223053 -1.090055,2.056409 -1.635434,3.085076 -0.545386,1.028655 -2.790885,6.365893 -4.186674,9.549294"
       inkscape:path-effect="#path-effect4516"
       inkscape:connector-curvature="0"
       id="path4514"
       d="m 1.1570455,1.5841036 c 9.4833615,-1.43558787 19.4735095,0.785256 27.4554825,6.103447 1.193605,0.7952695 2.347176,1.6598027 3.367219,2.6680974 1.883646,1.861951 3.263872,4.163054 4.584733,6.458769 1.099615,1.911179 2.180333,3.854993 2.839129,5.959214 0.658796,2.10422 0.874535,4.402883 0.228865,6.511168 -0.409373,1.336713 -1.155786,2.580236 -1.324396,3.968025 -0.157107,1.29311 0.207724,2.602624 0.771653,3.776847 0.563929,1.174222 1.32263,2.241842 2.016046,3.344561 0.837689,1.332152 1.587571,2.727438 2.576139,3.951809 1.132764,1.402962 2.581617,2.588088 3.36433,4.212531 0.38236,0.793549 0.590448,1.690915 0.461227,2.562249 -0.06461,0.435666 -0.213615,0.860426 -0.450198,1.231921 -0.236583,0.371495 -0.561775,0.688586 -0.94771,0.900799 -0.54974,0.302284 -1.189686,0.380873 -1.808201,0.48589 -0.618515,0.105017 -1.259397,0.254983 -1.736251,0.662659 -0.459554,0.392886 -0.712561,0.99078 -0.772295,1.592428 -0.05973,0.601649 0.0589,1.208895 0.245221,1.784076 0.232544,0.717864 0.569598,1.397862 0.814769,2.111512 0.245172,0.713651 0.397472,1.484247 0.243483,2.222957 -0.157775,0.756871 -0.646749,1.438557 -1.313106,1.830622 -0.666358,0.392064 -1.49973,0.488406 -2.237965,0.25872 0.805584,-0.164731 1.68295,0.06983 2.298855,0.614588 0.278963,0.246739 0.51184,0.568248 0.565474,0.936791 0.0394,0.27071 -0.02134,0.550182 -0.141459,0.79596 -0.120123,0.245777 -0.297301,0.460073 -0.494522,0.649651 -0.375818,0.361254 -0.82513,0.637557 -1.213284,0.985523 -0.194077,0.173983 -0.373404,0.366884 -0.511866,0.58771 -0.138462,0.220826 -0.235179,0.471004 -0.256521,0.730774 -0.02262,0.275268 0.03981,0.552464 0.144062,0.808228 0.104253,0.255764 0.24941,0.492597 0.398667,0.72499 0.558125,0.869001 1.196174,1.72323 1.430034,2.7292 0.159289,0.685197 0.11815,1.411854 -0.08902,2.084125 -0.207172,0.67227 -0.577425,1.290228 -1.050487,1.810882 -0.670014,0.73742 -1.541532,1.27818 -2.477553,1.619606 -0.936021,0.341425 -1.935834,0.488533 -2.932052,0.504521 -2.106922,0.03381 -4.176814,-0.507215 -6.27235,-0.728553 -1.584057,-0.167314 -3.182944,-0.151564 -4.772639,-0.05107 -0.357717,0.02261 -0.729363,0.05373 -1.038957,0.234349 -0.268903,0.156882 -0.464668,0.411845 -0.641314,0.668198 -0.661323,0.959727 -1.152567,2.024292 -1.635434,3.085076 -1.439967,3.163381 -2.835706,6.346894 -4.186674,9.549294"
       style="fill:none;fill-opacity:1;stroke:#000000;stroke-width:2.31483579;stroke-linecap:butt;stroke-linejoin:miter;stroke-miterlimit:4;stroke-dasharray:none;stroke-opacity:1;" />
    <path
       sodipodi:nodetypes="cc"
       inkscape:connector-curvature="0"
       id="path4975"
       d="m 51.368091,46.359173 -10e-7,4.643443"
       style="fill:none;fill-rule:evenodd;stroke:#000000;stroke-width:1px;stroke-linecap:butt;stroke-linejoin:miter;stroke-opacity:1;opacity:0" />
  </g>
</svg>
