<?xml version="1.0" encoding="UTF-8" standalone="no"?>
<!-- Created with Inkscape (http://www.inkscape.org/) -->

<svg
   xmlns:dc="http://purl.org/dc/elements/1.1/"
   xmlns:cc="http://creativecommons.org/ns#"
   xmlns:rdf="http://www.w3.org/1999/02/22-rdf-syntax-ns#"
   xmlns:svg="http://www.w3.org/2000/svg"
   xmlns="http://www.w3.org/2000/svg"
   xmlns:sodipodi="http://sodipodi.sourceforge.net/DTD/sodipodi-0.dtd"
   xmlns:inkscape="http://www.inkscape.org/namespaces/inkscape"
   id="svg4190"
   version="1.1"
   inkscape:version="0.91 r13725"
   width="429.72433"
   height="93.600418"
   viewBox="0 0 429.72433 93.600418"
   sodipodi:docname="temoto_logo.svg"
   inkscape:export-filename="/home/robert/catkin_ws/src/temoto_action_assistant/resources/temoto_logo.png"
   inkscape:export-xdpi="90"
   inkscape:export-ydpi="90">
  <metadata
     id="metadata4196">
    <rdf:RDF>
      <cc:Work
         rdf:about="">
        <dc:format>image/svg+xml</dc:format>
        <dc:type
           rdf:resource="http://purl.org/dc/dcmitype/StillImage" />
        <dc:title></dc:title>
      </cc:Work>
    </rdf:RDF>
  </metadata>
  <defs
     id="defs4194">
    <inkscape:path-effect
       is_visible="true"
       id="path-effect4516"
       effect="spiro" />
    <inkscape:path-effect
       is_visible="true"
       id="path-effect4530"
       effect="spiro" />
    <clipPath
       id="clipPath4643"
       clipPathUnits="userSpaceOnUse">
      <path
         inkscape:connector-curvature="0"
         id="path4645"
         d="m 129.29163,198.17709 15.96935,-24.52198 13.76439,16.57071 c 0,0 0.60135,21.78247 0.4009,22.45064 -0.20045,0.66818 -7.61718,10.02261 -9.15398,10.95805 -1.5368,0.93545 -5.07812,1.00226 -5.07812,1.00226 l -1.33635,0.20046 z"
         style="fill:none;stroke:#000000;stroke-width:0.26458332px;stroke-linecap:butt;stroke-linejoin:miter;stroke-opacity:1" />
    </clipPath>
    <filter
       inkscape:collect="always"
       style="color-interpolation-filters:sRGB"
       id="filter5493"
       x="-0.0046092508"
       width="1.0092185"
       y="-0.022715705"
       height="1.0454314">
      <feGaussianBlur
         inkscape:collect="always"
         stdDeviation="0.65249141"
         id="feGaussianBlur5495" />
    </filter>
    <filter
       inkscape:collect="always"
       style="color-interpolation-filters:sRGB"
       id="filter5497"
       x="-0.033765336"
       width="1.0675307"
       y="-0.024874522"
       height="1.049749">
      <feGaussianBlur
         inkscape:collect="always"
         stdDeviation="0.65249141"
         id="feGaussianBlur5499" />
    </filter>
    <filter
       inkscape:collect="always"
       style="color-interpolation-filters:sRGB"
       id="filter5501"
       x="-0.060804978"
       width="1.12161"
       y="-0.054891535"
       height="1.1097831">
      <feGaussianBlur
         inkscape:collect="always"
         stdDeviation="0.65249141"
         id="feGaussianBlur5503" />
    </filter>
    <filter
       inkscape:collect="always"
       style="color-interpolation-filters:sRGB"
       id="filter5505"
       x="-0.96598431"
       width="2.9319686"
       y="-50.580729"
       height="102.16146">
      <feGaussianBlur
         inkscape:collect="always"
         stdDeviation="0.65249141"
         id="feGaussianBlur5507" />
    </filter>
    <filter
       inkscape:collect="always"
       style="color-interpolation-filters:sRGB"
       id="filter5509"
       x="-0.027415562"
       width="1.0548311"
       y="-0.027415557"
       height="1.0548311">
      <feGaussianBlur
         inkscape:collect="always"
         stdDeviation="0.57877907"
         id="feGaussianBlur5511" />
    </filter>
  </defs>
  <sodipodi:namedview
     pagecolor="#ffffff"
     bordercolor="#666666"
     borderopacity="1"
     objecttolerance="10"
     gridtolerance="10"
     guidetolerance="10"
     inkscape:pageopacity="0"
     inkscape:pageshadow="2"
     inkscape:window-width="1916"
     inkscape:window-height="1041"
     id="namedview4192"
     showgrid="false"
     fit-margin-top="0"
     fit-margin-left="0"
     fit-margin-right="0"
     fit-margin-bottom="0"
     inkscape:zoom="1.522807"
     inkscape:cx="98.089301"
     inkscape:cy="173.75165"
     inkscape:window-x="0"
     inkscape:window-y="18"
     inkscape:window-maximized="0"
     inkscape:current-layer="svg4190" />
  <text
     xml:space="preserve"
     style="font-style:normal;font-weight:normal;font-size:45.05762863px;line-height:125%;font-family:sans-serif;letter-spacing:0px;word-spacing:0px;fill:#000000;fill-opacity:1;stroke:none;stroke-width:1px;stroke-linecap:butt;stroke-linejoin:miter;stroke-opacity:1;filter:url(#filter5493)"
     x="88.355217"
     y="92.688004"
     id="text4200"
     sodipodi:linespacing="125%"><tspan
       sodipodi:role="line"
       id="tspan4202"
       x="88.355217"
       y="92.688004"
       style="font-style:normal;font-variant:normal;font-weight:normal;font-stretch:normal;font-size:101.37967682px;font-family:'Bitstream Charter';-inkscape-font-specification:'Bitstream Charter'"><tspan
   style="font-weight:bold"
   id="tspan4204">Te</tspan>Moto</tspan></text>
  <path
     style="fill:none;fill-opacity:1;stroke:#000000;stroke-width:2.31483579;stroke-linecap:butt;stroke-linejoin:miter;stroke-miterlimit:4;stroke-dasharray:none;stroke-opacity:1;filter:url(#filter5497)"
     d="M 0.17323571,1.5854636 C 9.6565969,0.14987599 19.646745,2.3707198 27.628718,7.6889106 c 1.193605,0.7952695 2.347176,1.6598026 3.367219,2.6680974 1.883646,1.861951 3.263871,4.163054 4.584733,6.458769 1.099615,1.911179 2.180335,3.854993 2.839131,5.959213 0.658796,2.104221 0.874536,4.402884 0.228863,6.511169 -0.409375,1.336713 -1.15579,2.580235 -1.324396,3.968025 -0.157103,1.293109 0.207737,2.60262 0.771669,3.77684 0.563932,1.17422 1.32263,2.24184 2.01603,3.344568 0.837671,1.332165 1.587516,2.727481 2.576139,3.951809 1.132833,1.402919 2.581899,2.587941 3.36433,4.212531 0.382177,0.793528 0.589976,1.690837 0.460687,2.56206 -0.06464,0.435612 -0.213625,0.860313 -0.45011,1.231812 -0.236485,0.371498 -0.561504,0.688659 -0.947258,0.901097 -0.549498,0.302612 -1.189284,0.381832 -1.80771,0.487051 -0.618427,0.105218 -1.259093,0.254836 -1.736742,0.661498 -0.460738,0.392264 -0.715864,0.9899 -0.776321,1.591975 -0.06046,0.602076 0.05897,1.21012 0.249247,1.784529 0.237744,0.717708 0.584948,1.394805 0.834222,2.10859 0.249273,0.713785 0.398969,1.490337 0.22403,2.225879 -0.166553,0.700281 -0.634408,1.323476 -1.260376,1.678857 -0.625969,0.355381 -1.400875,0.437737 -2.087556,0.221862"
     id="path4514"
     inkscape:connector-curvature="0"
     inkscape:path-effect="#path-effect4516"
     inkscape:original-d="m 0.17323571,1.5854636 c 9.15204689,2.034172 18.30388529,4.06867 27.45548229,6.103447 9.151597,2.034796 2.245043,1.778427 3.367219,2.6680974 0.561088,0.444835 3.124647,3.049626 4.584733,6.458769 2.278583,5.320265 1.727382,9.680616 3.067994,12.470382 2.681226,5.579526 -0.752142,1.914558 -1.324396,3.968025 -0.57226,2.053458 1.858697,4.747304 2.787699,7.121408 0.464497,1.187051 1.454643,2.547705 2.576139,3.951809 1.121503,1.404103 2.374371,2.851661 3.36433,4.212531 1.979934,2.721758 -0.624223,3.129683 -0.936681,4.694969 -0.312456,1.565305 -2.362734,0.765397 -3.544452,1.148549 -1.181713,0.383137 -0.351159,2.250695 -0.527074,3.376504 -0.175939,1.125802 0.705738,2.889329 1.058252,4.334469 0.352534,1.445119 -2.23171,1.266832 -3.347932,1.900719"
     sodipodi:nodetypes="cccsccssccsccc" />
  <path
     style="fill:none;stroke:#000000;stroke-width:2.31483579;stroke-linecap:butt;stroke-linejoin:miter;stroke-miterlimit:4;stroke-dasharray:none;stroke-opacity:1;filter:url(#filter5501)"
     d="m 38.754573,63.995109 c 0.765898,-0.0068 1.530516,0.286309 2.095692,0.803244 0.274471,0.251044 0.509832,0.569012 0.565474,0.936791 0.04095,0.270656 -0.01956,0.550646 -0.139966,0.796476 -0.120411,0.245831 -0.298307,0.459812 -0.496015,0.649135 -0.376544,0.360573 -0.825921,0.636788 -1.21398,0.984938 -0.19403,0.174075 -0.373247,0.367119 -0.511573,0.588062 -0.138326,0.220942 -0.23488,0.471202 -0.256118,0.731007 -0.0225,0.275268 0.03994,0.552434 0.144172,0.808197 0.104233,0.255762 0.249337,0.492615 0.398557,0.725021 0.558002,0.869075 1.196131,1.723244 1.430034,2.7292 0.15932,0.685193 0.118186,1.411859 -0.08899,2.084131 -0.207178,0.672273 -0.577446,1.290226 -1.050518,1.810876 -0.670023,0.737409 -1.54154,1.278166 -2.477559,1.619593 -0.936019,0.341427 -1.935829,0.488542 -2.932046,0.504534 -2.106922,0.03382 -4.176814,-0.507213 -6.27235,-0.728553 -1.584057,-0.167315 -3.182944,-0.151564 -4.772639,-0.05107 -0.357717,0.02261 -0.729363,0.05373 -1.038957,0.234349 -0.268903,0.156882 -0.464668,0.411845 -0.641314,0.668198 -0.661323,0.959727 -1.152567,2.024292 -1.635434,3.085076 -1.439967,3.163381 -2.835706,6.346894 -4.186674,9.549294"
     id="path4528"
     inkscape:connector-curvature="0"
     inkscape:path-effect="#path-effect4530"
     inkscape:original-d="m 38.754573,63.995109 c 0.443631,0.289872 1.652174,0.513235 2.095692,0.803244 0.443538,0.289995 0.122048,0.646632 0.565474,0.936791 0.886824,0.580309 -0.42376,0.963433 -0.635981,1.445611 -0.212223,0.482155 -1.320883,1.535705 -1.981671,2.304007 -0.660785,0.768303 0.362043,1.021843 0.542729,1.533218 0.180677,0.511379 0.953596,1.819172 1.430034,2.7292 0.476447,0.910039 -0.759443,2.596369 -1.139509,3.895007 -0.38008,1.298623 -3.606176,1.415781 -5.409605,2.124127 -1.80344,0.708343 -4.181335,-0.485999 -6.27235,-0.728553 -2.091011,-0.242538 -3.181518,-0.03433 -4.772639,-0.05107 -1.591104,-0.01671 -0.692415,0.155906 -1.038957,0.234349 -0.346572,0.07841 -0.427315,0.445162 -0.641314,0.668198 -0.213983,0.223053 -1.090055,2.056409 -1.635434,3.085076 -0.545386,1.028655 -2.790885,6.365893 -4.186674,9.549294"
     sodipodi:nodetypes="csccccccccccccc" />
  <path
     style="fill:none;stroke:#000000;stroke-width:2.31483579;stroke-linecap:butt;stroke-linejoin:miter;stroke-miterlimit:4;stroke-dasharray:none;stroke-opacity:1;filter:url(#filter5505)"
     d="M 38.754573,63.995109 37.13345,63.964149"
     id="path4532"
     inkscape:connector-curvature="0" />
  <g
     id="g4627"
     clip-path="url(#clipPath4643)"
     transform="matrix(1.1253613,-0.06707188,0.06707188,1.1253614,-107.64095,-153.01346)"
     style="stroke:#929292;stroke-width:1.35449398;stroke-miterlimit:4;stroke-dasharray:none;stroke-opacity:1;filter:url(#filter5509)">
    <path
       id="path4553"
       d="m 135.23105,198.39004 a 4.8731617,4.8731617 0 0 1 -4.87316,4.87315 4.8731617,4.8731617 0 0 1 -4.87316,-4.87315 4.8731617,4.8731617 0 0 1 4.87316,-4.87316 4.8731617,4.8731617 0 0 1 4.87316,4.87316 z"
       style="fill:none;fill-opacity:1;stroke:#929292;stroke-width:1.35449398;stroke-linecap:square;stroke-linejoin:round;stroke-miterlimit:4;stroke-dasharray:none;stroke-dashoffset:0;stroke-opacity:1;paint-order:stroke markers fill"
       inkscape:connector-curvature="0" />
    <path
       id="path4553-9"
       d="m 142.23314,198.39004 a 11.875246,11.875246 0 0 1 -11.87525,11.87525 11.875246,11.875246 0 0 1 -11.87524,-11.87525 11.875246,11.875246 0 0 1 11.87524,-11.87525 11.875246,11.875246 0 0 1 11.87525,11.87525 z"
       style="fill:none;fill-opacity:1;stroke:#929292;stroke-width:1.35449398;stroke-linecap:square;stroke-linejoin:round;stroke-miterlimit:4;stroke-dasharray:none;stroke-dashoffset:0;stroke-opacity:1;paint-order:stroke markers fill"
       inkscape:connector-curvature="0" />
    <path
       id="path4553-9-8"
       d="m 149.03389,198.39004 a 18.675998,18.675998 0 0 1 -18.676,18.67599 18.675998,18.675998 0 0 1 -18.676,-18.67599 18.675998,18.675998 0 0 1 18.676,-18.676 18.675998,18.675998 0 0 1 18.676,18.676 z"
       style="fill:none;fill-opacity:1;stroke:#929292;stroke-width:1.35449398;stroke-linecap:square;stroke-linejoin:round;stroke-miterlimit:4;stroke-dasharray:none;stroke-dashoffset:0;stroke-opacity:1;paint-order:stroke markers fill"
       inkscape:connector-curvature="0" />
    <path
       id="path4553-9-8-9"
       d="m 155.69149,198.39004 a 25.333602,25.333602 0 0 1 -25.3336,25.3336 25.333602,25.333602 0 0 1 -25.3336,-25.3336 25.333602,25.333602 0 0 1 25.3336,-25.33361 25.333602,25.333602 0 0 1 25.3336,25.33361 z"
       style="fill:none;fill-opacity:1;stroke:#929292;stroke-width:1.35449398;stroke-linecap:square;stroke-linejoin:round;stroke-miterlimit:4;stroke-dasharray:none;stroke-dashoffset:0;stroke-opacity:1;paint-order:stroke markers fill"
       inkscape:connector-curvature="0" />
    <path
       inkscape:connector-curvature="0"
       style="fill:#000000;fill-opacity:1;stroke:#929292;stroke-width:1.35449398;stroke-linecap:square;stroke-linejoin:round;stroke-miterlimit:4;stroke-dasharray:none;stroke-dashoffset:0;stroke-opacity:1;paint-order:stroke markers fill"
       d="m 131.16066,198.4422 a 0.22813084,0.22813084 0 0 1 -0.22813,0.22813 0.22813084,0.22813084 0 0 1 -0.22813,-0.22813 0.22813084,0.22813084 0 0 1 0.22813,-0.22813 0.22813084,0.22813084 0 0 1 0.22813,0.22813 z"
       id="path4749" />
  </g>
</svg>
